<svg width="80" height="80" viewBox="0 0 80 80" fill="none" xmlns="http://www.w3.org/2000/svg">
<g filter="url(#filter0_d_10_84)">
<path d="M37 3C37 1.34315 38.3431 0 40 0C41.6569 0 43 1.34315 43 3V17C43 18.6569 41.6569 20 40 20C38.3431 20 37 18.6569 37 17V3Z" fill="black"/>
<path d="M37 63C37 61.3431 38.3431 60 40 60C41.6569 60 43 61.3431 43 63V77C43 78.6569 41.6569 80 40 80C38.3431 80 37 78.6569 37 77V63Z" fill="black"/>
<path d="M3 43C1.34315 43 0 41.6569 0 40C0 38.3431 1.34315 37 3 37H17C18.6569 37 20 38.3431 20 40C20 41.6569 18.6569 43 17 43H3Z" fill="black"/>
<path d="M3 43C1.34315 43 0 41.6569 0 40C0 38.3431 1.34315 37 3 37H17C18.6569 37 20 38.3431 20 40C20 41.6569 18.6569 43 17 43H3Z" fill="black"/>
<path d="M63 43C61.3431 43 60 41.6569 60 40C60 38.3431 61.3431 37 63 37H77C78.6569 37 80 38.3431 80 40C80 41.6569 78.6569 43 77 43H63Z" fill="black"/>
<path d="M11.7157 15.9584C10.5442 14.7868 10.5442 12.8873 11.7157 11.7157C12.8873 10.5442 14.7868 10.5442 15.9584 11.7157L25.8579 21.6152C27.0294 22.7868 27.0294 24.6863 25.8579 25.8579C24.6863 27.0294 22.7868 27.0294 21.6152 25.8579L11.7157 15.9584Z" fill="black"/>
<path d="M54.1421 58.3848C52.9706 57.2132 52.9706 55.3137 54.1421 54.1421C55.3137 52.9706 57.2132 52.9706 58.3848 54.1421L68.2843 64.0416C69.4558 65.2132 69.4558 67.1127 68.2843 68.2843C67.1127 69.4558 65.2132 69.4558 64.0416 68.2843L54.1421 58.3848Z" fill="black"/>
<path d="M15.9584 68.2843C14.7868 69.4558 12.8873 69.4558 11.7157 68.2843C10.5442 67.1127 10.5442 65.2132 11.7157 64.0416L21.6152 54.1421C22.7868 52.9706 24.6863 52.9706 25.8579 54.1421C27.0294 55.3137 27.0294 57.2132 25.8579 58.3848L15.9584 68.2843Z" fill="black"/>
<path d="M15.9584 68.2843C14.7868 69.4558 12.8873 69.4558 11.7157 68.2843C10.5442 67.1127 10.5442 65.2132 11.7157 64.0416L21.6152 54.1421C22.7868 52.9706 24.6863 52.9706 25.8579 54.1421C27.0294 55.3137 27.0294 57.2132 25.8579 58.3848L15.9584 68.2843Z" fill="black"/>
<path d="M58.3848 25.8579C57.2132 27.0294 55.3137 27.0294 54.1421 25.8579C52.9706 24.6863 52.9706 22.7868 54.1421 21.6152L64.0416 11.7157C65.2132 10.5442 67.1127 10.5442 68.2843 11.7157C69.4558 12.8873 69.4558 14.7868 68.2843 15.9584L58.3848 25.8579Z" fill="black"/>
<path d="M4.93093 28.8749C3.40019 28.2409 2.67329 26.486 3.30734 24.9552C3.94139 23.4245 5.69629 22.6976 7.22703 23.3316L12.7703 25.6277C14.301 26.2618 15.0279 28.0167 14.3939 29.5474C13.7598 31.0782 12.0049 31.8051 10.4742 31.171L4.93093 28.8749Z" fill="black"/>
<path d="M67.7547 54.8974C66.224 54.2633 65.4971 52.5084 66.1311 50.9777C66.7652 49.447 68.5201 48.7201 70.0508 49.3541L75.5941 51.6502C77.1248 52.2843 77.8517 54.0392 77.2177 55.5699C76.5836 57.1006 74.8287 57.8275 73.298 57.1935L67.7547 54.8974Z" fill="black"/>
<path d="M28.8749 75.5941C28.2408 77.1249 26.4859 77.8518 24.9552 77.2177C23.4244 76.5837 22.6975 74.8288 23.3316 73.298L25.6277 67.7548C26.2617 66.224 28.0166 65.4971 29.5474 66.1312C31.0781 66.7652 31.805 68.5201 31.171 70.0509L28.8749 75.5941Z" fill="black"/>
<path d="M28.4156 76.7028C28.0352 77.6212 26.4859 77.8518 24.9552 77.2177C23.4244 76.5837 22.4919 75.3251 22.8724 74.4067L26.0869 66.6461C26.4673 65.7277 28.0166 65.4971 29.5474 66.1312C31.0781 66.7652 32.0106 68.0238 31.6302 68.9422L28.4156 76.7028Z" fill="black"/>
<path d="M54.4381 13.879C54.0577 14.7974 52.5084 15.028 50.9777 14.3939C49.4469 13.7599 48.5144 12.5013 48.8948 11.5829L52.1094 3.82231C52.4898 2.90387 54.0391 2.67333 55.5699 3.30738C57.1006 3.94143 58.0331 5.19997 57.6527 6.11841L54.4381 13.879Z" fill="black"/>
<path d="M23.3316 7.22698C22.6975 5.69624 23.4244 3.94134 24.9552 3.30729C26.4859 2.67324 28.2408 3.40014 28.8749 4.93088L31.171 10.4742C31.805 12.0049 31.0781 13.7598 29.5474 14.3938C28.0166 15.0279 26.2617 14.301 25.6277 12.7703L23.3316 7.22698Z" fill="black"/>
<path d="M49.3541 70.0508C48.72 68.5201 49.4469 66.7651 50.9777 66.1311C52.5084 65.497 54.2633 66.224 54.8973 67.7547L57.1934 73.298C57.8275 74.8287 57.1006 76.5836 55.5699 77.2176C54.0391 77.8517 52.2842 77.1248 51.6502 75.5941L49.3541 70.0508Z" fill="black"/>
<path d="M7.22703 57.1934C5.69629 57.8274 3.94139 57.1005 3.30734 55.5698C2.67329 54.0391 3.40019 52.2842 4.93093 51.6501L10.4742 49.354C12.0049 48.72 13.7598 49.4469 14.3939 50.9776C15.0279 52.5083 14.301 54.2632 12.7703 54.8973L7.22703 57.1934Z" fill="black"/>
<path d="M6.11837 57.6526C5.19993 58.033 3.94139 57.1005 3.30734 55.5698C2.67329 54.0391 2.90383 52.4898 3.82227 52.1093L11.5829 48.8948C12.5013 48.5144 13.7598 49.4469 14.3939 50.9776C15.0279 52.5083 14.7974 54.0576 13.879 54.4381L6.11837 57.6526Z" fill="black"/>
<path d="M68.9422 31.6301C68.0237 32.0106 66.7652 31.0781 66.1311 29.5473C65.4971 28.0166 65.7276 26.4673 66.6461 26.0869L74.4067 22.8723C75.3251 22.4919 76.5836 23.4244 77.2177 24.9551C77.8517 26.4859 77.6212 28.0352 76.7028 28.4156L68.9422 31.6301Z" fill="black"/>
</g>
<defs>
<filter id="filter0_d_10_84" x="-4" y="0" width="88" height="88" filterUnits="userSpaceOnUse" color-interpolation-filters="sRGB">
<feFlood flood-opacity="0" result="BackgroundImageFix"/>
<feColorMatrix in="SourceAlpha" type="matrix" values="0 0 0 0 0 0 0 0 0 0 0 0 0 0 0 0 0 0 127 0" result="hardAlpha"/>
<feOffset dy="4"/>
<feGaussianBlur stdDeviation="2"/>
<feComposite in2="hardAlpha" operator="out"/>
<feColorMatrix type="matrix" values="0 0 0 0 0 0 0 0 0 0 0 0 0 0 0 0 0 0 0.25 0"/>
<feBlend mode="normal" in2="BackgroundImageFix" result="effect1_dropShadow_10_84"/>
<feBlend mode="normal" in="SourceGraphic" in2="effect1_dropShadow_10_84" result="shape"/>
</filter>
</defs>
</svg>
